<svg xmlns="http://www.w3.org/2000/svg" viewBox="0 0 600 600" fill="none"><defs><linearGradient id="a" x1="0" y1="0" x2="1" y2="1"><stop stop-color="#8B3DFF"/><stop offset=".55" stop-color="#E03BD0"/><stop offset="1" stop-color="#2F7BFF"/></linearGradient><linearGradient id="b" x1="0" y1="0" x2="1" y2="0"><stop stop-color="#22D3EE"/><stop offset="1" stop-color="#2F7BFF"/></linearGradient><radialGradient id="glow" cx=".5" cy=".5" r=".5"><stop stop-color="#8B3DFF" stop-opacity=".35"/><stop offset="1" stop-color="#8B3DFF" stop-opacity="0"/></radialGradient></defs>
<circle cx="300" cy="300" r="290" fill="url(#glow)"/>
<g stroke="#2A3470"><circle cx="300" cy="300" r="220"/><circle cx="300" cy="300" r="150"/><circle cx="300" cy="300" r="80"/></g>
<path d="M300 80v440M80 300h440" stroke="#2A3470" stroke-dasharray="3 7"/>
<g transform="rotate(-18 300 300)"><path d="M300 150a150 150 0 0 1 150 150" stroke="url(#a)" stroke-width="6" stroke-linecap="round"/><path d="M300 520a220 220 0 0 1-220-220" stroke="url(#b)" stroke-width="6" stroke-linecap="round"/></g>
<rect x="240" y="240" width="120" height="120" rx="30" fill="#0A1030" stroke="url(#a)" stroke-width="2"/>
<path d="M330 262h-34a15 15 0 0 0 0 30h8a15 15 0 0 1 0 30h-34" stroke="url(#a)" stroke-width="9" stroke-linecap="round"/><circle cx="330" cy="262" r="7" fill="#22D3EE"/><circle cx="270" cy="322" r="7" fill="#E03BD0"/>
<circle cx="300" cy="80" r="26" fill="#0E1538" stroke="#22D3EE"/><path d="M290 73l-7 7 7 7M310 73l7 7-7 7" stroke="#22D3EE" stroke-width="2.5" stroke-linecap="round" stroke-linejoin="round"/>
<circle cx="520" cy="300" r="26" fill="#0E1538" stroke="#E03BD0"/><path d="M508 292h4l4 14h12l3-9h-17" stroke="#E03BD0" stroke-width="2.5" stroke-linecap="round" stroke-linejoin="round"/>
<circle cx="300" cy="520" r="26" fill="#0E1538" stroke="#8B3DFF"/><circle cx="300" cy="520" r="8" stroke="#8B3DFF" stroke-width="2.5"/>
<circle cx="80" cy="300" r="26" fill="#0E1538" stroke="#2F7BFF"/><path d="M73 291l16 9-16 9z" fill="#2F7BFF"/>
<circle cx="406" cy="194" r="6" fill="#22D3EE"/><circle cx="194" cy="406" r="6" fill="#E03BD0"/><circle cx="406" cy="406" r="4" fill="#8B3DFF"/><circle cx="194" cy="194" r="4" fill="#2F7BFF"/>
</svg>
