<svg xmlns="http://www.w3.org/2000/svg" viewBox="0 0 600 400" fill="none"><defs><linearGradient id="a" x1="0" y1="0" x2="1" y2="1"><stop stop-color="#8B3DFF"/><stop offset=".55" stop-color="#E03BD0"/><stop offset="1" stop-color="#2F7BFF"/></linearGradient><linearGradient id="b" x1="0" y1="0" x2="1" y2="0"><stop stop-color="#22D3EE"/><stop offset="1" stop-color="#2F7BFF"/></linearGradient></defs>
<rect x="30" y="40" width="360" height="240" rx="14" fill="#0E1538" stroke="#2A3470"/><rect x="160" y="280" width="100" height="30" fill="#131B45"/><rect x="120" y="310" width="180" height="10" rx="5" fill="#2A3470"/>
<rect x="54" y="64" width="140" height="14" rx="7" fill="url(#a)"/><rect x="54" y="88" width="100" height="8" rx="4" fill="#2A3470"/><rect x="54" y="110" width="312" height="80" rx="10" fill="#131B45"/><rect x="54" y="204" width="96" height="52" rx="8" fill="#131B45"/><rect x="162" y="204" width="96" height="52" rx="8" fill="#131B45"/><rect x="270" y="204" width="96" height="52" rx="8" fill="#131B45"/>
<rect x="350" y="120" width="150" height="210" rx="14" fill="#0A1030" stroke="url(#b)" stroke-width="1.5"/><rect x="368" y="140" width="80" height="10" rx="5" fill="url(#a)"/><rect x="368" y="162" width="114" height="54" rx="8" fill="#131B45"/><rect x="368" y="226" width="54" height="40" rx="6" fill="#131B45"/><rect x="428" y="226" width="54" height="40" rx="6" fill="#131B45"/><rect x="368" y="276" width="114" height="36" rx="6" fill="#131B45"/>
<rect x="480" y="190" width="90" height="170" rx="14" fill="#070B20" stroke="url(#a)" stroke-width="1.5"/><rect x="494" y="206" width="44" height="8" rx="4" fill="url(#b)"/><rect x="494" y="222" width="62" height="46" rx="6" fill="#131B45"/><rect x="494" y="276" width="62" height="22" rx="5" fill="#131B45"/><rect x="494" y="306" width="62" height="22" rx="5" fill="#131B45"/><rect x="512" y="344" width="26" height="4" rx="2" fill="#2A3470"/>
</svg>
